<?xml version="1.0" encoding="UTF-8" standalone="no"?>
<!-- Created with Inkscape (http://www.inkscape.org/) -->

<svg
   xmlns:dc="http://purl.org/dc/elements/1.1/"
   xmlns:cc="http://creativecommons.org/ns#"
   xmlns:rdf="http://www.w3.org/1999/02/22-rdf-syntax-ns#"
   xmlns:svg="http://www.w3.org/2000/svg"
   xmlns="http://www.w3.org/2000/svg"
   xmlns:sodipodi="http://sodipodi.sourceforge.net/DTD/sodipodi-0.dtd"
   xmlns:inkscape="http://www.inkscape.org/namespaces/inkscape"
   width="8.0202999mm"
   height="7.2157688mm"
   viewBox="0 0 8.0202999 7.2157688"
   version="1.1"
   id="svg5262"
   inkscape:export-filename="/home/jsmanrique/devel/venvs/communitydb/hatstall.png"
   inkscape:export-xdpi="791.73999"
   inkscape:export-ydpi="791.73999"
   inkscape:version="0.92.2 (5c3e80d, 2017-08-06)"
   sodipodi:docname="hatstall.svg">
  <defs
     id="defs5256" />
  <sodipodi:namedview
     id="base"
     pagecolor="#ffffff"
     bordercolor="#666666"
     borderopacity="1.0"
     inkscape:pageopacity="0.0"
     inkscape:pageshadow="2"
     inkscape:zoom="5.6690076"
     inkscape:cx="54.660274"
     inkscape:cy="-41.771194"
     inkscape:document-units="mm"
     inkscape:current-layer="layer1"
     showgrid="false"
     inkscape:window-width="3200"
     inkscape:window-height="1671"
     inkscape:window-x="0"
     inkscape:window-y="55"
     inkscape:window-maximized="1"
     fit-margin-top="0"
     fit-margin-left="0"
     fit-margin-right="0"
     fit-margin-bottom="0" />
  <metadata
     id="metadata5259">
    <rdf:RDF>
      <cc:Work
         rdf:about="">
        <dc:format>image/svg+xml</dc:format>
        <dc:type
           rdf:resource="http://purl.org/dc/dcmitype/StillImage" />
        <dc:title></dc:title>
      </cc:Work>
    </rdf:RDF>
  </metadata>
  <g
     inkscape:label="Capa 1"
     inkscape:groupmode="layer"
     id="layer1"
     transform="translate(-62.521911,-124.15779)">
    <path
       d="m 66.365162,129.8985 a 1.283484,1.0783898 0 0 1 -2.566968,0 1.283484,1.0783898 0 1 1 2.566968,0 z"
       id="path4006"
       style="display:inline;fill:#ffffff;stroke:#000000;stroke-width:0.41475096;stroke-linejoin:round;stroke-miterlimit:4;stroke-dasharray:none"
       inkscape:connector-curvature="0" />
    <path
       d="m 65.570624,129.8985 a 0.47366669,0.4313559 0 1 1 -0.947332,0 0.47366669,0.4313559 0 1 1 0.947332,0 z"
       id="path4017"
       style="display:inline;fill:#000000;stroke:#000000;stroke-width:0.41474321;stroke-linejoin:round;stroke-miterlimit:4;stroke-dasharray:none"
       inkscape:connector-curvature="0" />
    <path
       d="m 65.020542,129.81761 a 0.076398,0.10783918 0 1 1 -0.152796,0 0.076398,0.10783918 0 1 1 0.152796,0 z"
       id="path4019"
       style="display:inline;fill:#ffffff;stroke:#ffffff;stroke-width:0.41474321;stroke-linejoin:round;stroke-miterlimit:4;stroke-dasharray:none"
       inkscape:connector-curvature="0" />
    <path
       d="M 67.149992,130.73705 H 66.562261 65.97453 l 0.293866,0.3085 0.293865,0.3085 0.293865,-0.3085 z"
       id="path4045"
       style="display:inline;fill:#ffffff;fill-opacity:1;stroke:#ffffff;stroke-width:0.03902211;stroke-linejoin:round;stroke-miterlimit:4;stroke-dasharray:none"
       inkscape:connector-curvature="0" />
    <path
       d="m 65.391351,128.70524 -2.750322,-0.733 c -0.194161,0.96215 1.842869,0.93291 2.780882,0.93291 z"
       id="path4052"
       style="display:inline;fill:#000000;fill-opacity:1;stroke:#000000;stroke-width:0.09570972;stroke-linejoin:round;stroke-miterlimit:4"
       inkscape:connector-curvature="0" />
    <path
       d="m 66.529046,130.268 c -0.09895,0.13352 -0.15771,0.30061 -0.278788,0.42467 -0.07395,0.0528 -0.226074,-0.0273 -0.290723,0.0515 0.180898,0.22021 0.386159,0.43553 0.595817,0.62672 0.122546,-0.0659 0.208601,-0.20292 0.314348,-0.29725 0.09605,-0.11069 0.217451,-0.20961 0.29462,-0.33079 -0.07001,-0.0667 -0.197552,-0.0153 -0.287386,-0.0388 -0.148778,-0.0506 -0.19271,-0.23528 -0.274708,-0.35372 -0.02224,-0.0252 -0.03291,-0.084 -0.07318,-0.0823 z"
       id="path3427"
       style="color:#000000;display:inline;overflow:visible;visibility:visible;fill:#ffa500;fill-opacity:1;fill-rule:nonzero;stroke:none;stroke-width:0.05839918px;marker:none;enable-background:accumulate"
       inkscape:connector-curvature="0" />
    <path
       inkscape:export-ydpi="90"
       inkscape:export-xdpi="90"
       inkscape:export-filename="/tmp/ico.png"
       inkscape:connector-curvature="0"
       id="path3782"
       d="m 64.922904,131.16743 c -0.3748,-0.0442 -0.744205,-0.2181 -0.976366,-0.45972 -0.381523,-0.39708 -0.445716,-0.93246 -0.16793,-1.40056 0.04379,-0.0738 0.143835,-0.19475 0.222322,-0.2688 0.07849,-0.074 0.130418,-0.13464 0.115402,-0.13464 -0.06352,0 -0.396618,-0.0468 -0.542723,-0.0763 -0.648925,-0.13086 -0.976833,-0.37555 -0.976833,-0.72894 0,-0.0681 0.0091,-0.13294 0.02026,-0.14408 0.01295,-0.013 0.491224,0.10425 1.326455,0.32505 0.71841,0.18993 1.396329,0.36628 1.506486,0.39191 0.110157,0.0256 0.280927,0.0857 0.37949,0.13355 0.315863,0.15328 0.623634,0.50977 0.685204,0.79367 l 0.01582,0.0729 0.04635,-0.12802 c 0.09485,-0.26195 0.248566,-0.46048 0.490016,-0.63289 0.162947,-0.11635 0.325593,-0.18308 0.614046,-0.25191 0.123865,-0.0296 0.79359,-0.20521 1.488277,-0.39034 0.986764,-0.26296 1.266872,-0.33059 1.280454,-0.30918 0.0096,0.0151 0.01753,0.0801 0.01771,0.14449 9.26e-4,0.33996 -0.324662,0.58863 -0.937859,0.71629 -0.165295,0.0344 -0.501433,0.0837 -0.570656,0.0837 -0.01299,0 0.05318,0.0783 0.147027,0.17405 0.195004,0.1989 0.29149,0.37134 0.342487,0.6121 0.104296,0.49239 -0.179435,1.02656 -0.683508,1.2868 -0.474109,0.24478 -1.00102,0.25711 -1.47012,0.0344 -0.24378,-0.11574 -0.237053,-0.10785 -0.168539,-0.19767 0.03216,-0.0422 0.05243,-0.0827 0.04506,-0.09 -0.0074,-0.007 -0.08331,-0.0191 -0.168759,-0.0261 -0.08545,-0.007 -0.171371,-0.026 -0.190945,-0.0422 -0.05214,-0.0433 -0.205067,-0.31166 -0.247074,-0.43362 -0.0204,-0.0592 -0.03695,-0.0857 -0.03778,-0.0604 -0.0021,0.0629 -0.154917,0.36057 -0.233998,0.45572 -0.05938,0.0714 -0.07556,0.0791 -0.167864,0.0791 -0.172966,0 -0.206283,0.0312 -0.125291,0.11744 l 0.04356,0.0464 -0.06439,0.0458 c -0.10068,0.0717 -0.356961,0.18181 -0.507634,0.21813 -0.147419,0.0355 -0.428348,0.058 -0.548151,0.0439 z m 0.461669,-0.4301 c 0.335983,-0.0805 0.58222,-0.26374 0.706219,-0.52541 0.05729,-0.12089 0.06545,-0.16053 0.06545,-0.31777 0,-0.15988 -0.0075,-0.19488 -0.06817,-0.31812 -0.166661,-0.33854 -0.555715,-0.55166 -1.007046,-0.55166 -0.451291,0 -0.840387,0.21312 -1.007013,0.55159 -0.06063,0.12316 -0.06814,0.15822 -0.06817,0.31813 -3e-5,0.15735 0.0081,0.1969 0.06542,0.31783 0.122178,0.25783 0.369441,0.44404 0.696227,0.52433 0.216261,0.0531 0.398651,0.0534 0.617088,10e-4 v 0 z m 2.906701,6.4e-4 c 0.291817,-0.07 0.512908,-0.20922 0.642765,-0.40486 0.3992,-0.60142 -0.110454,-1.30777 -0.943597,-1.30777 -0.768019,0 -1.285881,0.61814 -1.002448,1.19656 0.122909,0.25083 0.371356,0.43632 0.688909,0.51433 0.21555,0.053 0.398564,0.0535 0.614371,0.002 v 0 z"
       style="display:inline;fill:#ff00ff;fill-opacity:0;stroke:#000000;stroke-width:0.14972959;stroke-linecap:butt;stroke-linejoin:miter;stroke-miterlimit:4;stroke-dasharray:none;stroke-opacity:1" />
    <g
       style="display:inline"
       id="g3613"
       transform="matrix(0.28302352,0,0,0.28302352,61.781179,123.41223)">
      <path
         sodipodi:nodetypes="cssssss"
         d="m 28.466519,15.480445 c -1.690444,-0.411311 -3.880242,0.0024 -6.862802,1.703057 -4.343818,2.477 -5.647804,4.7124 -10.531132,6.5262 -2.7416801,1.0184 -7.1725478,1.2727 -6.7296333,-1.9563 0.4055207,-2.9564 4.8746766,-5.683963 10.7473903,-5.268022 7.253753,0.513753 7.780294,2.643843 11.236758,2.445771 4.073631,-0.233438 3.02577,-3.235043 2.139419,-3.450706 z"
         style="fill:#ffffff;fill-opacity:1;stroke:#000000;stroke-width:1px;stroke-linecap:butt;stroke-linejoin:miter;stroke-opacity:1"
         id="path2822"
         inkscape:connector-curvature="0" />
      <path
         sodipodi:nodetypes="ccscsc"
         id="path2832"
         d="m 22.349625,16.595174 c -5.498466,2.959917 -4.603518,5.10607 -10.999048,3.821601 1.40216,-4.418086 4.962036,-16.95097 7.147841,-17.2692571 1.878431,-0.2735287 4.924495,4.2931483 4.924495,4.2931483 0,0 -3.661803,-2.9673231 -4.16688,-1.7046325 -0.593183,1.4829546 2.39459,8.4145833 3.093592,10.8591403 z"
         style="display:inline;fill:#ffffff;fill-opacity:1;stroke:#000000;stroke-width:1px;stroke-linecap:butt;stroke-linejoin:round;stroke-opacity:1"
         inkscape:connector-curvature="0" />
      <path
         sodipodi:nodetypes="ccc"
         id="path3611"
         d="m 22.074942,15.74979 c 1.515307,-0.313608 1.831341,-0.3546 3.377477,-0.485523 1.799175,-0.173029 3.187957,0.237433 3.187957,0.237433"
         style="fill:none;stroke:#000000;stroke-width:1px;stroke-linecap:round;stroke-linejoin:miter;stroke-opacity:1"
         inkscape:connector-curvature="0" />
    </g>
    <path
       d="m 69.275777,129.8985 a 1.2834845,1.0783902 0 0 1 -2.566969,0 1.2834845,1.0783902 0 1 1 2.566969,0 z"
       id="path4028"
       style="display:inline;fill:#ffffff;stroke:#000000;stroke-width:0.41474321;stroke-linejoin:round;stroke-miterlimit:4;stroke-dasharray:none"
       inkscape:connector-curvature="0" />
    <path
       d="m 68.481239,129.8985 a 0.473667,0.43135619 0 1 1 -0.947334,0 0.473667,0.43135619 0 1 1 0.947334,0 z"
       id="path4030"
       style="display:inline;fill:#000000;stroke:#000000;stroke-width:0.41474321;stroke-linejoin:round;stroke-miterlimit:4;stroke-dasharray:none"
       inkscape:connector-curvature="0" />
    <path
       d="m 67.931156,129.81761 a 0.07639786,0.10783897 0 1 1 -0.152795,0 0.07639786,0.10783897 0 1 1 0.152795,0 z"
       id="path4032"
       style="display:inline;fill:#ffffff;stroke:#ffffff;stroke-width:0.41474321;stroke-linejoin:round;stroke-miterlimit:4;stroke-dasharray:none"
       inkscape:connector-curvature="0" />
    <path
       d="m 67.672979,128.70524 2.750323,-0.733 c 0.194161,0.96215 -1.84287,0.93291 -2.780882,0.93291 z"
       id="rect4049"
       style="display:inline;fill:#000000;fill-opacity:1;stroke:#000000;stroke-width:0.09570972;stroke-linejoin:round;stroke-miterlimit:4"
       inkscape:connector-curvature="0" />
  </g>
</svg>
